<?xml version="1.0" encoding="utf-8"?>
<svg xmlns="http://www.w3.org/2000/svg" viewBox="0 0 512 512">
  <g id="#8bcaf4ff" transform="matrix(0.504138, 0, 0, 0.504138, -60.435441, 48.225896)">
    <path fill="#8bcaf4" opacity="1.00" d=" M 357.97 61.52 C 378.77 57.60 400.22 57.38 421.15 60.47 C 450.73 65.14 478.12 79.88 500.02 100.07 C 524.19 122.22 543.79 148.76 562.27 175.69 C 580.70 202.23 598.08 229.49 615.19 256.90 C 639.13 229.54 661.40 200.77 684.95 173.08 C 698.27 157.33 711.82 141.78 725.77 126.58 C 739.98 112.12 753.84 97.22 769.53 84.31 C 780.56 74.93 793.17 67.18 807.04 62.83 C 816.08 59.92 825.62 59.07 835.05 58.42 C 847.23 58.47 859.44 58.05 871.58 59.16 C 913.45 61.39 955.23 69.73 993.98 85.97 C 1019.93 96.88 1044.98 110.99 1065.31 130.69 C 1084.05 148.53 1097.24 171.40 1106.47 195.39 C 1124.25 240.97 1130.13 290.09 1133.15 338.61 C 1136.03 392.50 1134.39 446.71 1126.76 500.17 C 1120.57 542.67 1111.18 585.33 1092.19 624.11 C 1076.73 655.08 1054.23 682.37 1027.49 704.27 C 985.55 738.35 933.40 759.63 879.63 764.84 C 851.03 767.31 821.87 765.81 794.16 757.99 C 765.46 750.20 738.69 735.98 715.50 717.44 C 694.05 700.40 675.20 680.32 658.18 658.91 C 637.18 632.62 618.37 604.70 599.28 577.02 C 577.38 606.46 555.18 635.67 532.48 664.49 C 518.89 681.10 505.32 697.87 489.48 712.42 C 477.41 723.57 463.70 733.01 448.69 739.75 C 432.07 746.97 414.16 751.05 396.09 752.23 C 353.64 755.11 310.17 749.10 271.09 731.84 C 234.38 715.87 201.86 689.98 178.86 657.13 C 158.58 628.71 146.74 595.26 138.60 561.58 C 124.48 501.19 120.17 438.90 120.96 377.01 C 121.94 335.02 124.85 292.68 135.56 251.91 C 139.46 238.47 143.15 224.22 152.69 213.52 C 185.74 155.94 236.69 108.56 297.17 80.95 C 316.56 72.03 337.07 65.74 357.97 61.52 M 338.72 251.47 C 324.56 306.40 319.46 363.41 320.57 420.03 C 321.57 467.57 327.98 514.94 339.13 561.14 C 347.25 552.20 354.58 542.57 362.51 533.46 C 390.56 500.21 418.75 467.07 447.00 433.99 C 458.11 421.17 468.79 407.99 480.19 395.43 C 461.66 366.54 443.64 337.29 423.29 309.64 C 399.62 280.36 374.12 252.39 345.60 227.75 C 342.88 235.52 340.85 243.52 338.72 251.47 M 913.00 243.98 C 885.50 278.71 857.84 313.31 829.17 347.08 C 803.67 377.31 777.66 407.11 751.81 437.03 C 770.33 464.79 789.53 492.10 808.61 519.48 C 823.67 541.27 839.57 562.47 855.54 583.59 C 856.98 585.34 857.67 587.87 859.81 588.96 C 875.33 596.85 891.14 604.20 907.21 610.92 C 923.75 564.00 931.89 514.54 936.33 465.12 C 939.47 427.83 939.34 390.32 936.93 352.99 C 934.50 313.17 928.52 273.63 920.54 234.56 C 917.46 237.24 915.54 240.86 913.00 243.98 Z"/>
  </g>
</svg>